<svg id="Capa_1" enable-background="new 0 0 512 512" height="512" viewBox="0 0 512 512" width="512" xmlns="http://www.w3.org/2000/svg" xmlns:xlink="http://www.w3.org/1999/xlink"><linearGradient id="SVGID_1_" gradientUnits="userSpaceOnUse" x1="256" x2="256" y1="481" y2="31"><stop offset="0" stop-color="#fd5900"/><stop offset="1" stop-color="#ffde00"/></linearGradient><g><g><path d="m315.298 132.626-31.594-4.758-14.288-28.576c-2.54-5.082-7.734-8.292-13.416-8.292s-10.876 3.21-13.416 8.292l-14.288 28.576-31.593 4.758c-5.618.846-10.275 4.794-12.031 10.197s-.308 11.335 3.74 15.322l22.762 22.419-5.238 31.518c-.932 5.604 1.384 11.254 5.98 14.594 4.595 3.339 10.685 3.796 15.728 1.178l28.356-14.721 28.356 14.721c5.083 2.638 11.167 2.135 15.728-1.178 4.597-3.34 6.912-8.99 5.98-14.594l-5.238-31.518 22.763-22.419c4.048-3.987 5.496-9.918 3.74-15.322-1.756-5.403-6.413-9.35-12.031-10.197zm-41.07 32.029c-3.479 3.426-5.072 8.33-4.271 13.146l1.596 9.604-8.641-4.486c-4.333-2.25-9.49-2.249-13.822 0l-8.641 4.486 1.596-9.604c.801-4.816-.793-9.72-4.271-13.146l-6.936-6.832 9.627-1.45c4.827-.727 8.999-3.758 11.182-8.125l4.354-8.708 4.354 8.708c2.183 4.367 6.354 7.397 11.182 8.125l9.628 1.45zm215.183-51.808c-14.412-14.088-33.381-21.847-53.411-21.847-5.929 0-11.763.687-17.416 2.029.471-5.56.918-11.231 1.334-17.046.602-8.401 7.666-14.983 16.082-14.983 8.284 0 15-6.716 15-15s-6.716-15-15-15h-360c-8.284 0-15 6.716-15 15s6.716 15 15 15c8.417 0 15.48 6.582 16.082 14.983.416 5.814.863 11.486 1.334 17.046-5.653-1.342-11.487-2.029-17.416-2.029-20.03 0-38.999 7.759-53.411 21.847-14.567 14.238-22.589 33.115-22.589 53.153 0 25.299 13.938 49.702 36.372 63.686l137.002 85.393c11.391 7.815 23.94 12.77 37.625 14.826v76.095c0 24.813-20.187 45-45 45-8.284 0-15 6.716-15 15s6.716 15 15 15h180c8.284 0 15-6.716 15-15s-6.716-15-15-15c-24.813 0-45-20.187-45-45v-76.096c13.685-2.056 26.235-7.01 37.625-14.826l137.002-85.393c22.437-13.983 36.374-38.386 36.374-63.685 0-20.038-8.022-38.915-22.589-53.153zm-437.17 91.38c-13.719-8.552-22.241-23.199-22.241-38.227 0-24.393 21.065-45 46-45 7.298 0 14.351 1.734 20.711 5.042 4.76 40.812 12.746 85.94 28.443 123.63zm233.759 96.773c-8.284 0-15 6.716-15 15v90c0 16.871 5.603 32.456 15.041 45h-60.082c9.438-12.544 15.041-28.129 15.041-45v-90c0-8.284-6.716-15-15-15-33.548 0-58.512-23.183-76.318-70.873-17.252-46.206-24.153-107.068-27.676-156.287-.322-4.492-1.291-8.802-2.809-12.841h273.607c-1.519 4.039-2.488 8.349-2.81 12.841-3.545 49.523-10.267 109.66-27.676 156.286-17.806 47.691-42.77 70.874-76.318 70.874zm173.759-96.773-72.913 45.446c15.704-37.707 23.684-82.821 28.443-123.63 6.36-3.309 13.413-5.043 20.711-5.043 24.935 0 46 20.607 46 45 0 15.028-8.522 29.675-22.241 38.227z" fill="url(#SVGID_1_)"/></g></g></svg>